<svg width="150" height="22" viewBox="0 0 150 22" fill="none" xmlns="http://www.w3.org/2000/svg">
<path d="M18.999 0.788086H6.89012C5.33311 0.788086 4.0709 2.05005 4.0709 3.60677C4.0709 5.16349 5.33311 6.42546 6.89012 6.42546H18.999C20.556 6.42546 21.8182 5.16349 21.8182 3.60677C21.8182 2.05005 20.556 0.788086 18.999 0.788086Z" fill="#0D1421"/>
<path d="M14.041 13.7267C15.598 13.7267 16.8602 12.4647 16.8602 10.908C16.8602 9.35127 15.598 8.0893 14.041 8.0893H8.87418C7.31716 8.0893 6.05495 9.35127 6.05495 10.908C6.05495 12.4647 7.31716 13.7267 8.87418 13.7267H14.041Z" fill="#0D1421"/>
<path d="M6.99451 21.0301C8.55123 21.0301 9.8132 19.7681 9.8132 18.2114C9.8132 16.6546 8.55123 15.3927 6.99451 15.3927C5.4378 15.3927 4.17583 16.6546 4.17583 18.2114C4.17583 19.7681 5.4378 21.0301 6.99451 21.0301Z" fill="#0D1421"/>
<path d="M2.81869 13.7267C4.3754 13.7267 5.63737 12.4647 5.63737 10.908C5.63737 9.35127 4.3754 8.0893 2.81869 8.0893C1.26197 8.0893 0 9.35127 0 10.908C0 12.4647 1.26197 13.7267 2.81869 13.7267Z" fill="#0D1421"/>
<path d="M33.5103 6.36151H39.0234V7.50675H34.7141V9.6907H38.6932V10.8359H34.7141V14H33.5103V6.36151ZM57.4059 14H55.9304C55.8381 13.8189 55.7688 13.6076 55.7226 13.3661C55.68 13.1246 55.6587 12.7536 55.6587 12.2528C55.6587 11.7415 55.5469 11.3775 55.3231 11.1609C55.0994 10.9442 54.7567 10.8359 54.2951 10.8359H52.4414V14H51.2376V6.36151H54.897C55.6463 6.36151 56.2411 6.55859 56.6815 6.95277C57.1253 7.34339 57.3473 7.83878 57.3473 8.43892C57.3473 8.91832 57.2141 9.33203 56.9478 9.68004C56.6815 10.0245 56.3068 10.282 55.8239 10.4524C56.2038 10.6016 56.4932 10.8217 56.6921 11.1129C56.891 11.4041 57.0011 11.7876 57.0224 12.2635C57.0401 12.6719 57.0685 13.0039 57.1076 13.2596C57.1502 13.4691 57.2496 13.6573 57.4059 13.8242V14ZM52.4414 9.6907H54.7851C55.2006 9.6907 55.522 9.59659 55.7493 9.40838C55.9801 9.21662 56.0955 8.94673 56.0955 8.59872C56.0955 8.25071 55.9801 7.9826 55.7493 7.79439C55.522 7.60263 55.2006 7.50675 54.7851 7.50675H52.4414V9.6907ZM68.9542 14L72.0916 6.36151H73.7535L76.8963 14H75.5433L74.8082 12.1463H71.0369L70.3072 14H68.9542ZM71.4631 11.0543H74.3821L72.9226 7.3576L71.4631 11.0543ZM97.4467 14H96.2482V7.02734L94.011 14H92.1573L89.9201 7.02734V14H88.7163V6.36151H90.9535L93.0842 13.0732L95.2095 6.36151H97.4467V14ZM109.927 6.36151H115.494V7.50675H111.131V9.4723H115.163V10.6175H111.131V12.8548H115.6V14H109.927V6.36151ZM127.836 14V6.36151H129.039V14H127.836ZM145.174 6.25497C145.71 6.24432 146.225 6.34375 146.719 6.55327C147.216 6.76278 147.644 7.0451 148.002 7.40021C148.361 7.75533 148.645 8.17614 148.855 8.66264C149.064 9.14915 149.164 9.65518 149.153 10.1808C149.164 10.7063 149.064 11.2141 148.855 11.7042C148.645 12.1907 148.361 12.6115 148.002 12.9666C147.644 13.3217 147.216 13.604 146.719 13.8136C146.225 14.0195 145.71 14.1172 145.174 14.1065C144.638 14.1172 144.121 14.0195 143.624 13.8136C143.13 13.604 142.704 13.3217 142.346 12.9666C141.987 12.6115 141.701 12.1907 141.488 11.7042C141.278 11.2141 141.179 10.7063 141.19 10.1808C141.179 9.65874 141.278 9.15447 141.488 8.66797C141.701 8.17791 141.987 7.75533 142.346 7.40021C142.704 7.0451 143.13 6.76278 143.624 6.55327C144.121 6.34375 144.638 6.24432 145.174 6.25497ZM145.174 12.9613C145.675 12.9613 146.131 12.8459 146.543 12.6151C146.958 12.3807 147.289 12.0504 147.534 11.6243C147.779 11.1982 147.901 10.717 147.901 10.1808C147.901 9.36754 147.64 8.7017 147.118 8.18324C146.6 7.66122 145.952 7.40021 145.174 7.40021C144.396 7.40021 143.746 7.663 143.224 8.18857C142.706 8.71413 142.447 9.38175 142.447 10.1914C142.447 11.0046 142.71 11.6705 143.235 12.1889C143.761 12.7038 144.407 12.9613 145.174 12.9613Z" fill="#0D1421"/>
</svg>
